<svg xmlns="http://www.w3.org/2000/svg" width="640" height="320" viewBox="0 0 640 320"><rect x="0" y="0" width="640" height="320" rx="14" fill="#141120" /><defs><linearGradient id="pcgrad-1-kdiz" x1="0" y1="0" x2="0" y2="1"><stop offset="0%" stop-color="#8b7bff" stop-opacity="0.4"/><stop offset="100%" stop-color="#8b7bff" stop-opacity="0.03"/></linearGradient><linearGradient id="pcgrad-2-yrja" x1="0" y1="0" x2="0" y2="1"><stop offset="0%" stop-color="#34d399" stop-opacity="0.4"/><stop offset="100%" stop-color="#34d399" stop-opacity="0.03"/></linearGradient></defs><line x1="14" y1="16" x2="626" y2="16" stroke="#5a5580" stroke-width="1" opacity="0.12" /><line x1="14" y1="65.6" x2="626" y2="65.6" stroke="#5a5580" stroke-width="1" opacity="0.12" /><line x1="14" y1="115.2" x2="626" y2="115.2" stroke="#5a5580" stroke-width="1" opacity="0.12" /><line x1="14" y1="164.8" x2="626" y2="164.8" stroke="#5a5580" stroke-width="1" opacity="0.12" /><line x1="14" y1="214.4" x2="626" y2="214.4" stroke="#5a5580" stroke-width="1" opacity="0.12" /><line x1="14" y1="264" x2="626" y2="264" stroke="#5a5580" stroke-width="1" opacity="0.12" /><line x1="14" y1="16" x2="14" y2="264" stroke="#4a4490" stroke-width="1" opacity="0.12" /><line x1="101.43" y1="16" x2="101.43" y2="264" stroke="#4a4490" stroke-width="1" opacity="0.12" /><line x1="188.86" y1="16" x2="188.86" y2="264" stroke="#4a4490" stroke-width="1" opacity="0.12" /><line x1="276.29" y1="16" x2="276.29" y2="264" stroke="#4a4490" stroke-width="1" opacity="0.12" /><line x1="363.71" y1="16" x2="363.71" y2="264" stroke="#4a4490" stroke-width="1" opacity="0.12" /><line x1="451.14" y1="16" x2="451.14" y2="264" stroke="#4a4490" stroke-width="1" opacity="0.12" /><line x1="538.57" y1="16" x2="538.57" y2="264" stroke="#4a4490" stroke-width="1" opacity="0.12" /><line x1="626" y1="16" x2="626" y2="264" stroke="#4a4490" stroke-width="1" opacity="0.12" /><path d="M14,214.4 L116,53.2 L218,164.8 L320,115.2 L422,239.2 L524,164.8 L626,28.4 L626,264 L14,264 Z" fill="url(#pcgrad-1-kdiz)" stroke="none" /><path d="M14,214.4 L116,53.2 L218,164.8 L320,115.2 L422,239.2 L524,164.8 L626,28.4" fill="none" stroke="#8b7bff" stroke-width="2" stroke-linejoin="round" stroke-linecap="round" /><path d="M14,226.8 L116,65.6 L218,169.76 L320,149.92 L422,249.12 L524,177.2 L626,68.08 L626,264 L14,264 Z" fill="url(#pcgrad-2-yrja)" stroke="none" /><path d="M14,226.8 L116,65.6 L218,169.76 L320,149.92 L422,249.12 L524,177.2 L626,68.08" fill="none" stroke="#34d399" stroke-width="2" stroke-linejoin="round" stroke-linecap="round" /><text x="14" y="282" font-size="11" fill="#5a5580" font-family="sans-serif" text-anchor="middle">Mon</text><text x="116" y="282" font-size="11" fill="#5a5580" font-family="sans-serif" text-anchor="middle">Tue</text><text x="218" y="282" font-size="11" fill="#5a5580" font-family="sans-serif" text-anchor="middle">Wed</text><text x="320" y="282" font-size="11" fill="#5a5580" font-family="sans-serif" text-anchor="middle">Thu</text><text x="422" y="282" font-size="11" fill="#5a5580" font-family="sans-serif" text-anchor="middle">Fri</text><text x="524" y="282" font-size="11" fill="#5a5580" font-family="sans-serif" text-anchor="middle">Sat</text><text x="626" y="282" font-size="11" fill="#5a5580" font-family="sans-serif" text-anchor="middle">Sun</text><rect x="210" y="297" width="10" height="10" rx="2" fill="#8b7bff" /><text x="224" y="306" font-size="12" fill="#5a5580" font-family="sans-serif">API Requests</text><rect x="322" y="297" width="10" height="10" rx="2" fill="#34d399" /><text x="336" y="306" font-size="12" fill="#5a5580" font-family="sans-serif">Successful Responses</text></svg>