<svg xmlns="http://www.w3.org/2000/svg" width="640" height="160" viewBox="0 0 640 160"><rect x="0" y="0" width="640" height="160" rx="14" fill="#141120" /><line x1="14" y1="16" x2="626" y2="16" stroke="#5a5580" stroke-width="1" opacity="0.12" /><line x1="14" y1="33.6" x2="626" y2="33.6" stroke="#5a5580" stroke-width="1" opacity="0.12" /><line x1="14" y1="51.2" x2="626" y2="51.2" stroke="#5a5580" stroke-width="1" opacity="0.12" /><line x1="14" y1="68.8" x2="626" y2="68.8" stroke="#5a5580" stroke-width="1" opacity="0.12" /><line x1="14" y1="86.4" x2="626" y2="86.4" stroke="#5a5580" stroke-width="1" opacity="0.12" /><line x1="14" y1="104" x2="626" y2="104" stroke="#5a5580" stroke-width="1" opacity="0.12" /><line x1="14" y1="16" x2="14" y2="104" stroke="#4a4490" stroke-width="1" opacity="0.12" /><line x1="101.43" y1="16" x2="101.43" y2="104" stroke="#4a4490" stroke-width="1" opacity="0.12" /><line x1="188.86" y1="16" x2="188.86" y2="104" stroke="#4a4490" stroke-width="1" opacity="0.12" /><line x1="276.29" y1="16" x2="276.29" y2="104" stroke="#4a4490" stroke-width="1" opacity="0.12" /><line x1="363.71" y1="16" x2="363.71" y2="104" stroke="#4a4490" stroke-width="1" opacity="0.12" /><line x1="451.14" y1="16" x2="451.14" y2="104" stroke="#4a4490" stroke-width="1" opacity="0.12" /><line x1="538.57" y1="16" x2="538.57" y2="104" stroke="#4a4490" stroke-width="1" opacity="0.12" /><line x1="626" y1="16" x2="626" y2="104" stroke="#4a4490" stroke-width="1" opacity="0.12" /><path d="M14,79.36 L101.43,75.84 L188.86,51.2 L276.29,72.32 L363.71,74.08 L451.14,68.8 L538.57,70.56 L626,34.48" fill="none" stroke="#4fd8c4" stroke-width="2" stroke-linejoin="round" stroke-linecap="round" /><path d="M14,61.76 L101.43,55.6 L188.86,23.04 L276.29,49.44 L363.71,52.96 L451.14,42.4 L538.57,46.8 L626,50.32" fill="none" stroke="#f0a860" stroke-width="2" stroke-linejoin="round" stroke-linecap="round" /><text x="14" y="122" font-size="11" fill="#5a5580" font-family="sans-serif" text-anchor="middle">00</text><text x="101.43" y="122" font-size="11" fill="#5a5580" font-family="sans-serif" text-anchor="middle">04</text><text x="188.86" y="122" font-size="11" fill="#5a5580" font-family="sans-serif" text-anchor="middle">08</text><text x="276.29" y="122" font-size="11" fill="#5a5580" font-family="sans-serif" text-anchor="middle">12</text><text x="363.71" y="122" font-size="11" fill="#5a5580" font-family="sans-serif" text-anchor="middle">16</text><text x="451.14" y="122" font-size="11" fill="#5a5580" font-family="sans-serif" text-anchor="middle">20</text><text x="538.57" y="122" font-size="11" fill="#5a5580" font-family="sans-serif" text-anchor="middle">24</text><text x="626" y="122" font-size="11" fill="#5a5580" font-family="sans-serif" text-anchor="middle">28</text><rect x="210" y="137" width="10" height="10" rx="2" fill="#4fd8c4" /><text x="224" y="146" font-size="12" fill="#5a5580" font-family="sans-serif">p50</text><rect x="263.5" y="137" width="10" height="10" rx="2" fill="#f0a860" /><text x="277.5" y="146" font-size="12" fill="#5a5580" font-family="sans-serif">p95</text></svg>